<svg width="117" height="40" viewBox="0 0 117 40" fill="none" xmlns="http://www.w3.org/2000/svg">
<path d="M39.99 24H30.432V22.236L36.588 13.398H30.594V11.148H39.828V12.912L33.672 21.75H39.99V24ZM50.4138 24H40.8558V22.236L47.0118 13.398H41.0178V11.148H50.2518V12.912L44.0958 21.75H50.4138V24ZM54.9337 14.172V24H52.2517V14.172H54.9337ZM53.6017 10.32C53.9977 10.32 54.3397 10.416 54.6277 10.608C54.9157 10.788 55.0597 11.13 55.0597 11.634C55.0597 12.126 54.9157 12.468 54.6277 12.66C54.3397 12.852 53.9977 12.948 53.6017 12.948C53.1937 12.948 52.8457 12.852 52.5577 12.66C52.2817 12.468 52.1437 12.126 52.1437 11.634C52.1437 11.13 52.2817 10.788 52.5577 10.608C52.8457 10.416 53.1937 10.32 53.6017 10.32ZM60.418 16.44C60.418 16.812 60.4 17.184 60.364 17.556C60.34 17.916 60.31 18.282 60.274 18.654H60.31C60.43 18.486 60.55 18.318 60.67 18.15C60.802 17.982 60.934 17.814 61.066 17.646C61.198 17.478 61.336 17.316 61.48 17.16L64.234 14.172H67.258L63.352 18.438L67.492 24H64.396L61.57 20.022L60.418 20.94V24H57.736V10.32H60.418V16.44ZM78.8367 24L74.9487 12.732H74.8767C74.9007 12.972 74.9187 13.278 74.9307 13.65C74.9547 14.022 74.9727 14.43 74.9847 14.874C74.9967 15.306 75.0027 15.75 75.0027 16.206V24H73.5267V11.148H75.8667L79.5207 21.678H79.5927L83.3187 11.148H85.6587V24H84.0747V16.098C84.0747 15.678 84.0807 15.264 84.0927 14.856C84.1047 14.436 84.1227 14.046 84.1467 13.686C84.1707 13.314 84.1887 13.002 84.2007 12.75H84.1287L80.1687 24H78.8367ZM92.2547 14.172C93.0347 14.172 93.7067 14.352 94.2707 14.712C94.8347 15.072 95.2667 15.582 95.5667 16.242C95.8787 16.89 96.0347 17.652 96.0347 18.528V19.482H89.8427C89.8667 20.574 90.1247 21.408 90.6167 21.984C91.1087 22.548 91.7987 22.83 92.6867 22.83C93.2627 22.83 93.7727 22.776 94.2167 22.668C94.6727 22.548 95.1407 22.38 95.6207 22.164V23.55C95.1527 23.766 94.6907 23.922 94.2347 24.018C93.7907 24.126 93.2507 24.18 92.6147 24.18C91.7507 24.18 90.9887 23.994 90.3287 23.622C89.6687 23.25 89.1527 22.698 88.7807 21.966C88.4087 21.222 88.2227 20.316 88.2227 19.248C88.2227 18.192 88.3907 17.286 88.7267 16.53C89.0627 15.774 89.5307 15.192 90.1307 14.784C90.7427 14.376 91.4507 14.172 92.2547 14.172ZM92.2547 15.468C91.5587 15.468 91.0067 15.714 90.5987 16.206C90.1907 16.686 89.9507 17.358 89.8787 18.222H94.4147C94.4147 17.67 94.3367 17.19 94.1807 16.782C94.0247 16.374 93.7847 16.056 93.4607 15.828C93.1487 15.588 92.7467 15.468 92.2547 15.468ZM106.245 19.158C106.245 19.962 106.143 20.676 105.939 21.3C105.747 21.912 105.465 22.434 105.093 22.866C104.721 23.298 104.271 23.628 103.743 23.856C103.215 24.072 102.627 24.18 101.979 24.18C101.379 24.18 100.821 24.072 100.305 23.856C99.8008 23.628 99.3568 23.298 98.9728 22.866C98.6008 22.434 98.3128 21.912 98.1088 21.3C97.9048 20.676 97.8028 19.962 97.8028 19.158C97.8028 18.09 97.9708 17.19 98.3068 16.458C98.6548 15.714 99.1468 15.15 99.7828 14.766C100.419 14.37 101.169 14.172 102.033 14.172C102.861 14.172 103.587 14.37 104.211 14.766C104.847 15.15 105.345 15.714 105.705 16.458C106.065 17.19 106.245 18.09 106.245 19.158ZM99.4228 19.158C99.4228 19.914 99.5128 20.574 99.6928 21.138C99.8728 21.69 100.155 22.116 100.539 22.416C100.923 22.716 101.415 22.866 102.015 22.866C102.615 22.866 103.107 22.716 103.491 22.416C103.875 22.116 104.157 21.69 104.337 21.138C104.529 20.574 104.625 19.914 104.625 19.158C104.625 18.39 104.529 17.736 104.337 17.196C104.157 16.656 103.875 16.242 103.491 15.954C103.107 15.654 102.609 15.504 101.997 15.504C101.097 15.504 100.443 15.828 100.035 16.476C99.6268 17.124 99.4228 18.018 99.4228 19.158ZM110.12 17.466C110.12 17.658 110.108 17.91 110.084 18.222C110.072 18.534 110.06 18.804 110.048 19.032H110.12C110.192 18.936 110.294 18.798 110.426 18.618C110.558 18.438 110.696 18.258 110.84 18.078C110.984 17.886 111.11 17.73 111.218 17.61L114.08 14.352H115.898L112.226 18.474L116.15 24H114.278L111.164 19.5L110.12 20.454V24H108.572V10.32H110.12V17.466Z" fill="white"/>
<path d="M37.483 30.5085V29.7273H42.9375V30.5085H40.6506V37H39.7699V30.5085H37.483ZM46.546 37.1278C46.2003 37.1278 45.8867 37.0627 45.6049 36.9325C45.3232 36.8 45.0995 36.6094 44.9338 36.3608C44.7681 36.1098 44.6852 35.8068 44.6852 35.4517C44.6852 35.1392 44.7467 34.8859 44.8699 34.6918C44.993 34.4953 45.1575 34.3414 45.3635 34.2301C45.5694 34.1188 45.7967 34.036 46.0453 33.9815C46.2962 33.9247 46.5484 33.8797 46.8017 33.8466C47.1331 33.804 47.4018 33.772 47.6078 33.7507C47.8161 33.727 47.9676 33.688 48.0623 33.6335C48.1594 33.5791 48.2079 33.4844 48.2079 33.3494V33.321C48.2079 32.9706 48.112 32.6984 47.9203 32.5043C47.7309 32.3101 47.4432 32.2131 47.0574 32.2131C46.6573 32.2131 46.3436 32.3007 46.1163 32.4759C45.889 32.651 45.7292 32.8381 45.6369 33.0369L44.8414 32.7528C44.9835 32.4214 45.1729 32.1634 45.4096 31.9787C45.6487 31.7917 45.9092 31.6615 46.1909 31.5881C46.475 31.5123 46.7543 31.4744 47.0289 31.4744C47.2041 31.4744 47.4054 31.4957 47.6326 31.5384C47.8623 31.5786 48.0836 31.6626 48.2967 31.7905C48.5121 31.9183 48.6909 32.1113 48.8329 32.3693C48.975 32.6274 49.046 32.973 49.046 33.4062V37H48.2079V36.2614H48.1653C48.1085 36.3797 48.0138 36.5064 47.8812 36.6413C47.7486 36.7763 47.5723 36.8911 47.3521 36.9858C47.1319 37.0805 46.8632 37.1278 46.546 37.1278ZM46.6738 36.375C47.0053 36.375 47.2846 36.3099 47.5119 36.1797C47.7415 36.0495 47.9144 35.8814 48.0304 35.6754C48.1487 35.4695 48.2079 35.2528 48.2079 35.0256V34.2585C48.1724 34.3011 48.0943 34.3402 47.9735 34.3757C47.8552 34.4089 47.7179 34.4384 47.5616 34.4645C47.4077 34.4882 47.2574 34.5095 47.1106 34.5284C46.9662 34.545 46.849 34.5592 46.7591 34.571C46.5413 34.5994 46.3377 34.6456 46.1483 34.7095C45.9612 34.7711 45.8097 34.8646 45.6937 34.9901C45.5801 35.1132 45.5233 35.2812 45.5233 35.4943C45.5233 35.7855 45.631 36.0057 45.8464 36.1548C46.0642 36.3016 46.34 36.375 46.6738 36.375ZM55.9393 32.767L55.1864 32.9801C55.1391 32.8546 55.0692 32.7327 54.9769 32.6143C54.887 32.4936 54.7638 32.3942 54.6076 32.3161C54.4513 32.2379 54.2513 32.1989 54.0075 32.1989C53.6737 32.1989 53.3955 32.2758 53.1729 32.4297C52.9528 32.5812 52.8427 32.7741 52.8427 33.0085C52.8427 33.2169 52.9184 33.3814 53.07 33.5021C53.2215 33.6229 53.4582 33.7235 53.7802 33.804L54.5898 34.0028C55.0775 34.1212 55.4409 34.3023 55.68 34.5462C55.9192 34.7876 56.0387 35.099 56.0387 35.4801C56.0387 35.7926 55.9487 36.072 55.7688 36.3182C55.5913 36.5644 55.3427 36.7585 55.0231 36.9006C54.7035 37.0426 54.3318 37.1136 53.908 37.1136C53.3517 37.1136 52.8912 36.9929 52.5266 36.7514C52.1621 36.5099 51.9312 36.1572 51.8342 35.6932L52.6296 35.4943C52.7054 35.7879 52.8486 36.008 53.0593 36.1548C53.2724 36.3016 53.5505 36.375 53.8938 36.375C54.2844 36.375 54.5946 36.2921 54.8242 36.1264C55.0562 35.9583 55.1722 35.7571 55.1722 35.5227C55.1722 35.3333 55.1059 35.1747 54.9734 35.0469C54.8408 34.9167 54.6372 34.8196 54.3626 34.7557L53.4535 34.5426C52.954 34.4242 52.587 34.2408 52.3526 33.9922C52.1206 33.7412 52.0046 33.4276 52.0046 33.0511C52.0046 32.7434 52.091 32.4711 52.2638 32.2344C52.439 31.9976 52.677 31.8118 52.9776 31.6768C53.2807 31.5419 53.6239 31.4744 54.0075 31.4744C54.5472 31.4744 54.971 31.5928 55.2788 31.8295C55.5889 32.0663 55.8091 32.3788 55.9393 32.767ZM61.1724 31.5455V32.2557H58.3457V31.5455H61.1724ZM59.1696 30.2386H60.0076V35.4375C60.0076 35.6742 60.042 35.8518 60.1106 35.9702C60.1816 36.0862 60.2716 36.1643 60.3805 36.2045C60.4918 36.2424 60.609 36.2614 60.7321 36.2614C60.8244 36.2614 60.9002 36.2566 60.9593 36.2472C61.0185 36.2353 61.0659 36.2259 61.1014 36.2188L61.2718 36.9716C61.215 36.9929 61.1357 37.0142 61.0339 37.0355C60.9321 37.0592 60.8031 37.071 60.6468 37.071C60.4101 37.071 60.1781 37.0201 59.9508 36.9183C59.7259 36.8165 59.5389 36.6615 59.3897 36.4531C59.243 36.2448 59.1696 35.982 59.1696 35.6648V30.2386ZM63.9331 37V31.5455H64.7711V37H63.9331ZM64.3592 30.6364C64.1958 30.6364 64.055 30.5807 63.9366 30.4695C63.8206 30.3582 63.7626 30.2244 63.7626 30.0682C63.7626 29.9119 63.8206 29.7782 63.9366 29.6669C64.055 29.5556 64.1958 29.5 64.3592 29.5C64.5225 29.5 64.6622 29.5556 64.7782 29.6669C64.8966 29.7782 64.9558 29.9119 64.9558 30.0682C64.9558 30.2244 64.8966 30.3582 64.7782 30.4695C64.6622 30.5807 64.5225 30.6364 64.3592 30.6364ZM68.6442 33.7188V37H67.8061V31.5455H68.6158V32.3977H68.6868C68.8146 32.1207 69.0088 31.8982 69.2692 31.7301C69.5296 31.5597 69.8658 31.4744 70.2777 31.4744C70.647 31.4744 70.9702 31.5502 71.2472 31.7017C71.5241 31.8509 71.7396 32.0781 71.8935 32.3835C72.0473 32.6866 72.1243 33.0701 72.1243 33.5341V37H71.2862V33.5909C71.2862 33.1624 71.175 32.8286 70.9524 32.5895C70.7299 32.348 70.4245 32.2273 70.0362 32.2273C69.7687 32.2273 69.5296 32.2853 69.3189 32.4013C69.1106 32.5173 68.946 32.6866 68.8253 32.9091C68.7045 33.1316 68.6442 33.4015 68.6442 33.7188ZM77.3574 39.1591C76.9526 39.1591 76.6046 39.107 76.3134 39.0028C76.0222 38.901 75.7795 38.7661 75.5854 38.598C75.3936 38.4323 75.2409 38.2547 75.1273 38.0653L75.7949 37.5966C75.8707 37.696 75.9666 37.8097 76.0826 37.9375C76.1986 38.0677 76.3572 38.1802 76.5584 38.2749C76.762 38.3719 77.0283 38.4205 77.3574 38.4205C77.7978 38.4205 78.1612 38.3139 78.4476 38.1009C78.7341 37.8878 78.8773 37.554 78.8773 37.0994V35.9915H78.8063C78.7447 36.0909 78.6571 36.214 78.5435 36.3608C78.4322 36.5052 78.2712 36.6342 78.0605 36.7479C77.8522 36.8591 77.5705 36.9148 77.2154 36.9148C76.775 36.9148 76.3797 36.8106 76.0293 36.6023C75.6813 36.3939 75.4055 36.0909 75.2019 35.6932C75.0007 35.2955 74.9 34.8125 74.9 34.2443C74.9 33.6856 74.9983 33.1991 75.1948 32.7848C75.3913 32.3681 75.6647 32.0462 76.0151 31.8189C76.3655 31.5893 76.7703 31.4744 77.2296 31.4744C77.5847 31.4744 77.8664 31.5336 78.0748 31.652C78.2855 31.768 78.4464 31.9006 78.5577 32.0497C78.6713 32.1965 78.7589 32.3172 78.8205 32.4119H78.9057V31.5455H79.7154V37.1562C79.7154 37.625 79.6088 38.0062 79.3958 38.2997C79.1851 38.5956 78.901 38.8123 78.5435 38.9496C78.1884 39.0893 77.793 39.1591 77.3574 39.1591ZM77.329 36.1619C77.6652 36.1619 77.9493 36.085 78.1813 35.9311C78.4133 35.7772 78.5897 35.5559 78.7104 35.267C78.8311 34.9782 78.8915 34.6326 78.8915 34.2301C78.8915 33.8371 78.8323 33.4903 78.714 33.1896C78.5956 32.889 78.4204 32.6534 78.1884 32.483C77.9564 32.3125 77.6699 32.2273 77.329 32.2273C76.9739 32.2273 76.678 32.3172 76.4412 32.4972C76.2069 32.6771 76.0305 32.9186 75.9121 33.2216C75.7961 33.5246 75.7381 33.8608 75.7381 34.2301C75.7381 34.6089 75.7973 34.9439 75.9157 35.2351C76.0364 35.5239 76.214 35.7512 76.4483 35.9169C76.6851 36.0803 76.9786 36.1619 77.329 36.1619ZM87.4739 37H86.5506L89.2211 29.7273H90.1301L92.8006 37H91.8773L89.704 30.8778H89.6472L87.4739 37ZM87.8148 34.1591H91.5364V34.9403H87.8148V34.1591ZM95.3198 39.0455V31.5455H96.1294V32.4119H96.2289C96.2904 32.3172 96.3757 32.1965 96.4846 32.0497C96.5958 31.9006 96.7544 31.768 96.9604 31.652C97.1687 31.5336 97.4505 31.4744 97.8056 31.4744C98.2649 31.4744 98.6697 31.5893 99.0201 31.8189C99.3704 32.0485 99.6439 32.3741 99.8404 32.7955C100.037 33.2169 100.135 33.714 100.135 34.2869C100.135 34.8646 100.037 35.3653 99.8404 35.7891C99.6439 36.2105 99.3716 36.5372 99.0236 36.7692C98.6756 36.9988 98.2743 37.1136 97.8198 37.1136C97.4694 37.1136 97.1889 37.0556 96.9782 36.9396C96.7675 36.8213 96.6053 36.6875 96.4917 36.5384C96.378 36.3868 96.2904 36.2614 96.2289 36.1619H96.1578V39.0455H95.3198ZM96.1436 34.2727C96.1436 34.6847 96.204 35.0481 96.3248 35.3629C96.4455 35.6754 96.6219 35.9205 96.8539 36.098C97.0859 36.2732 97.37 36.3608 97.7061 36.3608C98.0565 36.3608 98.3489 36.2685 98.5833 36.0838C98.82 35.8968 98.9976 35.6458 99.1159 35.331C99.2367 35.0137 99.2971 34.661 99.2971 34.2727C99.2971 33.8892 99.2379 33.5436 99.1195 33.2358C99.0035 32.9257 98.8271 32.6806 98.5904 32.5007C98.356 32.3184 98.0613 32.2273 97.7061 32.2273C97.3652 32.2273 97.0788 32.3137 96.8468 32.4865C96.6148 32.657 96.4396 32.8961 96.3212 33.2038C96.2028 33.5092 96.1436 33.8655 96.1436 34.2727ZM102.914 39.0455V31.5455H103.723V32.4119H103.823C103.884 32.3172 103.969 32.1965 104.078 32.0497C104.19 31.9006 104.348 31.768 104.554 31.652C104.762 31.5336 105.044 31.4744 105.399 31.4744C105.859 31.4744 106.263 31.5893 106.614 31.8189C106.964 32.0485 107.238 32.3741 107.434 32.7955C107.631 33.2169 107.729 33.714 107.729 34.2869C107.729 34.8646 107.631 35.3653 107.434 35.7891C107.238 36.2105 106.965 36.5372 106.617 36.7692C106.269 36.9988 105.868 37.1136 105.414 37.1136C105.063 37.1136 104.783 37.0556 104.572 36.9396C104.361 36.8213 104.199 36.6875 104.085 36.5384C103.972 36.3868 103.884 36.2614 103.823 36.1619H103.752V39.0455H102.914ZM103.737 34.2727C103.737 34.6847 103.798 35.0481 103.919 35.3629C104.039 35.6754 104.216 35.9205 104.448 36.098C104.68 36.2732 104.964 36.3608 105.3 36.3608C105.65 36.3608 105.943 36.2685 106.177 36.0838C106.414 35.8968 106.591 35.6458 106.71 35.331C106.83 35.0137 106.891 34.661 106.891 34.2727C106.891 33.8892 106.832 33.5436 106.713 33.2358C106.597 32.9257 106.421 32.6806 106.184 32.5007C105.95 32.3184 105.655 32.2273 105.3 32.2273C104.959 32.2273 104.673 32.3137 104.441 32.4865C104.209 32.657 104.033 32.8961 103.915 33.2038C103.797 33.5092 103.737 33.8655 103.737 34.2727Z" fill="#AEAEAE"/>
<path fill-rule="evenodd" clip-rule="evenodd" d="M15.7908 14.6907C15.7009 14.6646 15.6168 14.62 15.5432 14.5594C15.3947 14.4374 15.2989 14.258 15.2755 14.0607C15.2521 13.8633 15.3037 13.6642 15.4191 13.5072L16.9249 11.4604C16.1257 11.1114 15.2468 10.9371 14.2882 10.9375C12.5891 10.9382 11.1403 11.4869 9.94179 12.5834C8.74325 13.6799 8.14398 15.0062 8.14398 16.5625H7.52956C6.34168 16.5625 5.32788 16.9469 4.48817 17.7156C3.64846 18.4844 3.2286 19.4125 3.2286 20.5C3.2286 21.5875 3.64846 22.5156 4.48817 23.2844C5.32788 24.0531 6.34168 24.4375 7.52956 24.4375H22.2757C23.1359 24.4375 23.863 24.1656 24.4569 23.6219C25.0509 23.0781 25.3478 22.4125 25.3478 21.625C25.3478 20.8375 25.0509 20.1719 24.4569 19.6281C23.863 19.0844 23.1359 18.8125 22.2757 18.8125H20.4324V16.9111L19.4234 17.7409C19.2746 17.8579 19.0884 17.9086 18.9047 17.8822C18.721 17.8558 18.5544 17.7544 18.4405 17.5997C18.3266 17.445 18.2746 17.2492 18.2955 17.0544C18.3164 16.8596 18.4087 16.6812 18.5524 16.5574L20.2536 15.1584C20.1569 14.7975 20.0211 14.4516 19.8461 14.1207L17.9851 16.0887C17.8513 16.2253 17.6722 16.3009 17.4862 16.2992C17.3002 16.2975 17.1224 16.2186 16.9909 16.0796C16.8594 15.9405 16.7848 15.7524 16.7832 15.5557C16.7816 15.3591 16.853 15.1696 16.9822 15.0282L18.9768 12.9189C18.8688 12.8044 18.7547 12.6922 18.6346 12.5822C18.4862 12.4463 18.3339 12.3188 18.1777 12.1997L16.539 14.4274C16.4818 14.5053 16.4107 14.5705 16.3297 14.6192C16.2487 14.668 16.1594 14.6994 16.067 14.7117C15.9745 14.724 15.8806 14.7168 15.7908 14.6907ZM19.0836 11.4147C19.2293 11.5302 19.3721 11.6521 19.512 11.7801C19.6099 11.8697 19.7045 11.9607 19.7957 12.053L19.9624 11.8767L20.322 11.3974C19.9666 11.2649 19.5809 11.2539 19.2193 11.3662C19.1734 11.3805 19.1281 11.3967 19.0836 11.4147ZM20.7157 13.2011C20.9219 13.5271 21.0944 13.8663 21.2332 14.2189C21.3266 14.0664 21.3993 13.8995 21.4483 13.7231C21.5546 13.3408 21.5444 12.9328 21.4191 12.5569L20.9652 12.9372L20.7157 13.2011ZM21.6327 15.9241C21.6517 16.1331 21.6613 16.3459 21.6613 16.5625V17.6875H22.4183C23.5947 17.722 24.5818 18.1176 25.3798 18.8744C26.1777 19.6311 26.5767 20.548 26.5767 21.625C26.5767 22.7282 26.1613 23.6605 25.3306 24.4217C24.4983 25.1822 23.48 25.5625 22.2757 25.5625H7.52956C5.99678 25.5625 4.69216 25.0727 3.61569 24.0932C2.5384 23.1152 1.99976 21.9239 1.99976 20.5191C1.99976 19.2299 2.48105 18.0857 3.44365 17.0867C4.40625 16.0877 5.60273 15.5511 7.03311 15.4769C7.30919 13.8381 8.13251 12.4844 9.50309 11.4156C10.8737 10.3469 12.4687 9.8125 14.2882 9.8125C15.5415 9.8125 16.6794 10.0577 17.702 10.5481C18.0924 10.2136 18.5542 9.97813 19.052 9.86517C19.7913 9.69742 20.5629 9.81055 21.2312 10.1847L25.0432 5.10194C25.1884 4.90815 25.3707 4.74903 25.5781 4.63502C25.7855 4.52101 26.0134 4.45469 26.2468 4.44042C26.4802 4.42615 26.7138 4.46426 26.9323 4.55223C27.1508 4.64021 27.3492 4.77606 27.5145 4.95087C27.6798 5.12568 27.8083 5.33549 27.8914 5.56653C27.9746 5.79757 28.0107 6.0446 27.9972 6.29141C27.9837 6.53821 27.921 6.77921 27.8132 6.99857C27.7054 7.21793 27.5549 7.41069 27.3716 7.5642L22.5652 11.5954C22.919 12.3021 23.026 13.1181 22.8674 13.8999C22.7087 14.6817 22.2947 15.3794 21.6978 15.8704L21.6327 15.9241Z" fill="url(#paint0_linear_21_28)"/>
<defs>
<linearGradient id="paint0_linear_21_28" x1="8.81174" y1="25.5625" x2="19.722" y2="3.70574" gradientUnits="userSpaceOnUse">
<stop offset="0.3" stop-color="#41D1FF"/>
<stop offset="1" stop-color="#BD34FE"/>
</linearGradient>
</defs>
</svg>
