<svg width="26" height="22" viewBox="0 0 26 22" fill="none" xmlns="http://www.w3.org/2000/svg">
<path fill-rule="evenodd" clip-rule="evenodd" d="M13.7876 10.6907C13.6978 10.6646 13.6137 10.62 13.5401 10.5594C13.3916 10.4374 13.2958 10.258 13.2724 10.0607C13.249 9.86333 13.3006 9.66425 13.416 9.5072L14.9217 7.46036C14.1226 7.11136 13.2438 6.93708 12.2854 6.9375C10.5866 6.93825 9.13792 7.48687 7.93953 8.58337C6.74114 9.67987 6.14194 11.0062 6.14194 12.5625H5.52759C4.33985 12.5625 3.32617 12.9469 2.48656 13.7156C1.64695 14.4844 1.22714 15.4125 1.22714 16.5C1.22714 17.5875 1.64695 18.5156 2.48656 19.2844C3.32617 20.0531 4.33985 20.4375 5.52759 20.4375H20.272C21.1321 20.4375 21.8591 20.1656 22.4529 19.6219C23.0468 19.0781 23.3437 18.4125 23.3437 17.625C23.3437 16.8375 23.0468 16.1719 22.4529 15.6281C21.8591 15.0844 21.1321 14.8125 20.272 14.8125H18.4289V12.9109L17.4198 13.7409C17.271 13.8579 17.0849 13.9086 16.9012 13.8822C16.7175 13.8558 16.5509 13.7544 16.437 13.5997C16.3232 13.445 16.2712 13.2492 16.2921 13.0544C16.313 12.8596 16.4052 12.6812 16.549 12.5574L18.2501 11.1583C18.1534 10.7974 18.0176 10.4515 17.8426 10.1206L15.9817 12.0887C15.8479 12.2253 15.6688 12.3009 15.4829 12.2992C15.2969 12.2975 15.1191 12.2186 14.9876 12.0796C14.8561 11.9405 14.7815 11.7524 14.7799 11.5557C14.7783 11.3591 14.8498 11.1696 14.9789 11.0282L16.9734 8.91883C16.8654 8.80434 16.7514 8.69214 16.6313 8.58225C16.4829 8.44629 16.3305 8.31876 16.1743 8.19966L14.5357 10.4274C14.4786 10.5053 14.4075 10.5705 14.3265 10.6193C14.2455 10.668 14.1563 10.6994 14.0638 10.7117C13.9713 10.724 13.8775 10.7168 13.7876 10.6907ZM17.0801 7.41463C17.2259 7.53021 17.3687 7.65204 17.5086 7.78012C17.6065 7.86972 17.701 7.96063 17.7922 8.05286L17.9587 7.8767L18.3183 7.39745C17.963 7.26486 17.5773 7.25393 17.2158 7.36621C17.1699 7.38047 17.1246 7.39663 17.0801 7.41463ZM18.712 9.20099C18.9183 9.52692 19.0908 9.86616 19.2296 10.2187C19.3228 10.0662 19.3955 9.89946 19.4445 9.7231C19.5508 9.34078 19.5406 8.93277 19.4153 8.55695L18.9615 8.9372L18.712 9.20099ZM19.629 11.9239C19.6481 12.133 19.6576 12.3459 19.6576 12.5625V13.6875H20.4145C21.5908 13.722 22.5778 14.1176 23.3757 14.8744C24.1735 15.6311 24.5724 16.548 24.5724 17.625C24.5724 18.7282 24.1571 19.6605 23.3265 20.4217C22.4943 21.1822 21.4761 21.5625 20.272 21.5625H5.52759C3.99499 21.5625 2.69052 21.0727 1.61418 20.0932C0.53702 19.1152 -0.00156021 17.9239 -0.00156021 16.5191C-0.00156021 15.2299 0.47968 14.0857 1.44216 13.0867C2.40464 12.0877 3.60099 11.5511 5.03119 11.4769C5.30724 9.83812 6.13047 8.48437 7.50088 7.41562C8.87129 6.34687 10.4661 5.8125 12.2854 5.8125C13.5385 5.8125 14.6763 6.05767 15.6987 6.54803C16.089 6.21358 16.5507 5.97813 17.0485 5.86517C17.7877 5.69742 18.5592 5.81056 19.2274 6.1847L23.039 1.10195C23.1841 0.908156 23.3664 0.74903 23.5738 0.635019C23.7812 0.521008 24.0091 0.454691 24.2425 0.440423C24.4758 0.426155 24.7094 0.464259 24.9278 0.552233C25.1463 0.640206 25.3447 0.77606 25.51 0.95087C25.6752 1.12568 25.8037 1.33549 25.8869 1.56653C25.9701 1.79757 26.0061 2.0446 25.9926 2.29141C25.9791 2.53822 25.9164 2.77921 25.8086 2.99857C25.7008 3.21793 25.5503 3.41069 25.3671 3.5642L20.5613 7.59545C20.915 8.30214 21.022 9.11808 20.8634 9.89991C20.7048 10.6817 20.2907 11.3794 19.694 11.8704L19.629 11.9239Z" fill="url(#paint0_linear_14_33)"/>
<defs>
<linearGradient id="paint0_linear_14_33" x1="6.81166" y1="21.5625" x2="17.7219" y2="-0.294276" gradientUnits="userSpaceOnUse">
<stop offset="0.3" stop-color="#41D1FF"/>
<stop offset="1" stop-color="#BD34FE"/>
</linearGradient>
</defs>
</svg>
