<svg width="95" height="29" viewBox="0 0 95 29" fill="none" xmlns="http://www.w3.org/2000/svg">
<path d="M13.99 21H4.432V19.236L10.588 10.398H4.594V8.148H13.828V9.912L7.672 18.75H13.99V21ZM24.4138 21H14.8558V19.236L21.0118 10.398H15.0178V8.148H24.2518V9.912L18.0958 18.75H24.4138V21ZM28.9337 11.172V21H26.2517V11.172H28.9337ZM27.6017 7.32C27.9977 7.32 28.3397 7.416 28.6277 7.608C28.9157 7.788 29.0597 8.13 29.0597 8.634C29.0597 9.126 28.9157 9.468 28.6277 9.66C28.3397 9.852 27.9977 9.948 27.6017 9.948C27.1937 9.948 26.8457 9.852 26.5577 9.66C26.2817 9.468 26.1437 9.126 26.1437 8.634C26.1437 8.13 26.2817 7.788 26.5577 7.608C26.8457 7.416 27.1937 7.32 27.6017 7.32ZM34.418 13.44C34.418 13.812 34.4 14.184 34.364 14.556C34.34 14.916 34.31 15.282 34.274 15.654H34.31C34.43 15.486 34.55 15.318 34.67 15.15C34.802 14.982 34.934 14.814 35.066 14.646C35.198 14.478 35.336 14.316 35.48 14.16L38.234 11.172H41.258L37.352 15.438L41.492 21H38.396L35.57 17.022L34.418 17.94V21H31.736V7.32H34.418V13.44ZM52.8367 21L48.9487 9.732H48.8767C48.9007 9.972 48.9187 10.278 48.9307 10.65C48.9547 11.022 48.9727 11.43 48.9847 11.874C48.9967 12.306 49.0027 12.75 49.0027 13.206V21H47.5267V8.148H49.8667L53.5207 18.678H53.5927L57.3187 8.148H59.6587V21H58.0747V13.098C58.0747 12.678 58.0807 12.264 58.0927 11.856C58.1047 11.436 58.1227 11.046 58.1467 10.686C58.1707 10.314 58.1887 10.002 58.2007 9.75H58.1287L54.1687 21H52.8367ZM66.2547 11.172C67.0347 11.172 67.7067 11.352 68.2707 11.712C68.8347 12.072 69.2667 12.582 69.5667 13.242C69.8787 13.89 70.0347 14.652 70.0347 15.528V16.482H63.8427C63.8667 17.574 64.1247 18.408 64.6167 18.984C65.1087 19.548 65.7987 19.83 66.6867 19.83C67.2627 19.83 67.7727 19.776 68.2167 19.668C68.6727 19.548 69.1407 19.38 69.6207 19.164V20.55C69.1527 20.766 68.6907 20.922 68.2347 21.018C67.7907 21.126 67.2507 21.18 66.6147 21.18C65.7507 21.18 64.9887 20.994 64.3287 20.622C63.6687 20.25 63.1527 19.698 62.7807 18.966C62.4087 18.222 62.2227 17.316 62.2227 16.248C62.2227 15.192 62.3907 14.286 62.7267 13.53C63.0627 12.774 63.5307 12.192 64.1307 11.784C64.7427 11.376 65.4507 11.172 66.2547 11.172ZM66.2547 12.468C65.5587 12.468 65.0067 12.714 64.5987 13.206C64.1907 13.686 63.9507 14.358 63.8787 15.222H68.4147C68.4147 14.67 68.3367 14.19 68.1807 13.782C68.0247 13.374 67.7847 13.056 67.4607 12.828C67.1487 12.588 66.7467 12.468 66.2547 12.468ZM80.2448 16.158C80.2448 16.962 80.1428 17.676 79.9388 18.3C79.7468 18.912 79.4648 19.434 79.0928 19.866C78.7208 20.298 78.2708 20.628 77.7428 20.856C77.2148 21.072 76.6268 21.18 75.9788 21.18C75.3788 21.18 74.8208 21.072 74.3048 20.856C73.8008 20.628 73.3568 20.298 72.9728 19.866C72.6008 19.434 72.3128 18.912 72.1088 18.3C71.9048 17.676 71.8028 16.962 71.8028 16.158C71.8028 15.09 71.9708 14.19 72.3068 13.458C72.6548 12.714 73.1468 12.15 73.7828 11.766C74.4188 11.37 75.1688 11.172 76.0328 11.172C76.8608 11.172 77.5868 11.37 78.2108 11.766C78.8468 12.15 79.3448 12.714 79.7048 13.458C80.0648 14.19 80.2448 15.09 80.2448 16.158ZM73.4228 16.158C73.4228 16.914 73.5128 17.574 73.6928 18.138C73.8728 18.69 74.1548 19.116 74.5388 19.416C74.9228 19.716 75.4148 19.866 76.0148 19.866C76.6148 19.866 77.1068 19.716 77.4908 19.416C77.8748 19.116 78.1568 18.69 78.3368 18.138C78.5288 17.574 78.6248 16.914 78.6248 16.158C78.6248 15.39 78.5288 14.736 78.3368 14.196C78.1568 13.656 77.8748 13.242 77.4908 12.954C77.1068 12.654 76.6088 12.504 75.9968 12.504C75.0968 12.504 74.4428 12.828 74.0348 13.476C73.6268 14.124 73.4228 15.018 73.4228 16.158ZM84.1204 14.466C84.1204 14.658 84.1084 14.91 84.0844 15.222C84.0724 15.534 84.0604 15.804 84.0484 16.032H84.1204C84.1924 15.936 84.2944 15.798 84.4264 15.618C84.5584 15.438 84.6964 15.258 84.8404 15.078C84.9844 14.886 85.1104 14.73 85.2184 14.61L88.0804 11.352H89.8984L86.2264 15.474L90.1504 21H88.2784L85.1644 16.5L84.1204 17.454V21H82.5724V7.32H84.1204V14.466Z" fill="#1E1E1E"/>
</svg>
